<?xml version="1.0" standalone="no"?>
<!DOCTYPE svg PUBLIC "-//W3C//DTD SVG 20010904//EN"
 "http://www.w3.org/TR/2001/REC-SVG-20010904/DTD/svg10.dtd">
<svg version="1.0" xmlns="http://www.w3.org/2000/svg"
 width="634.000000pt" height="634.000000pt" viewBox="0 0 634.000000 634.000000"
 preserveAspectRatio="xMidYMid meet">
<metadata>
Created by potrace 1.14, written by Peter Selinger 2001-2017
</metadata>
<g transform="translate(0.000000,634.000000) scale(0.100000,-0.100000)"
fill="#000000" stroke="none">
<path d="M147 5554 c-9 -9 28 -96 92 -220 54 -104 58 -115 59 -181 0 -57 6
-82 30 -129 29 -58 46 -119 57 -201 5 -39 4 -43 -16 -43 -18 0 -19 -2 -9 -15
7 -9 15 -13 18 -11 6 7 52 -49 52 -63 0 -7 7 -14 15 -17 8 -4 12 -10 9 -15 -3
-5 -1 -9 3 -9 7 0 31 -45 37 -70 1 -3 5 -11 10 -18 9 -15 9 -15 -22 -28 -22
-9 -22 -9 15 -38 20 -16 33 -23 29 -15 -5 8 9 -5 30 -29 22 -23 46 -42 55 -42
21 0 39 -20 39 -45 0 -12 8 -30 18 -41 10 -10 33 -47 52 -81 19 -35 38 -63 42
-63 4 0 19 -5 35 -11 15 -6 30 -10 33 -10 3 0 9 -7 13 -15 5 -8 12 -12 18 -9
5 4 9 0 9 -8 0 -8 12 -19 28 -25 15 -5 45 -17 66 -25 l39 -14 0 -109 c0 -125
-7 -146 -92 -258 -73 -96 -71 -91 -45 -159 13 -32 31 -65 40 -71 15 -12 15
-15 -1 -47 -10 -19 -26 -44 -37 -55 -20 -23 -31 -72 -18 -89 4 -5 10 -35 12
-65 6 -63 29 -120 78 -186 24 -32 85 -74 108 -74 53 0 17 -43 -233 -279 -303
-284 -300 -280 -266 -355 10 -23 32 -58 50 -80 17 -21 31 -47 31 -57 0 -10 11
-26 24 -34 18 -12 25 -29 30 -67 10 -71 16 -80 104 -144 42 -32 105 -82 140
-112 56 -49 66 -54 97 -49 l36 6 -23 -32 c-12 -18 -58 -69 -102 -115 -45 -46
-84 -89 -88 -97 -5 -7 -31 -27 -58 -44 -62 -38 -65 -48 -5 -16 78 42 221 142
280 197 32 29 60 54 64 56 4 1 8 -16 9 -38 2 -24 -2 -40 -8 -40 -6 0 -8 -4 -5
-10 3 -5 2 -10 -2 -10 -5 0 -10 -12 -11 -26 -6 -74 -69 -227 -138 -334 -40
-62 -116 -162 -134 -177 -8 -7 -10 -13 -5 -13 7 0 7 -3 0 -8 -5 -4 -15 -16
-21 -27 -6 -11 -21 -25 -33 -31 -12 -6 -30 -20 -41 -30 -84 -85 -218 -182
-259 -186 -32 -4 -92 4 -129 17 -7 2 -16 5 -20 5 -4 1 -14 8 -23 16 -9 8 -19
11 -22 7 -4 -3 -7 1 -7 10 0 10 -6 17 -13 17 -18 0 -47 54 -51 96 -2 19 -7 38
-11 42 -7 7 0 -109 11 -163 3 -16 11 -33 17 -37 7 -4 8 -8 3 -8 -17 0 38 -41
63 -47 14 -3 31 -8 36 -12 23 -13 74 -6 140 18 101 36 222 97 251 126 13 13
24 22 24 18 0 -7 67 43 107 80 18 17 35 28 39 25 16 -16 -134 -277 -173 -301
-8 -5 -10 -13 -7 -19 4 -6 3 -8 -3 -5 -5 3 -21 -5 -36 -19 -14 -13 -31 -24
-37 -24 -5 0 -10 -4 -10 -9 0 -27 -159 -99 -289 -131 l-76 -19 65 -1 c77 -3
63 -3 130 5 30 3 71 10 90 15 45 12 59 -2 31 -32 -12 -12 -25 -23 -29 -23 -4
0 -25 -20 -47 -45 -106 -119 -162 -167 -250 -211 -50 -24 -92 -47 -93 -52 -2
-4 -7 -5 -12 -2 -5 3 -21 0 -37 -6 -15 -6 -46 -14 -68 -18 -25 -4 -40 -12 -40
-21 0 -8 6 -14 13 -12 7 1 29 5 49 8 19 3 45 8 57 11 11 2 30 6 41 8 54 9 85
16 147 34 37 11 72 22 78 26 5 3 18 8 28 10 29 5 273 115 315 142 21 13 41 23
43 20 6 -5 -34 -124 -56 -167 -10 -19 -50 -65 -88 -102 l-70 -68 2881 0 c2623
0 2879 1 2861 16 -10 8 -12 13 -4 9 8 -4 2 5 -15 19 -16 14 -27 26 -23 26 8 0
-18 34 -54 71 -9 9 -14 20 -11 23 3 3 -2 8 -11 12 -9 3 -14 9 -11 13 2 4 -9
22 -25 39 -16 18 -27 32 -24 32 2 0 -3 11 -12 25 -26 39 -8 42 39 7 38 -29
168 -102 182 -102 3 0 5 11 5 25 0 18 -5 25 -18 25 -62 0 -376 265 -390 328
-3 15 4 15 29 1 11 -6 57 -22 102 -35 82 -25 211 -34 229 -16 5 5 -18 6 -49 4
-76 -5 -152 22 -241 84 -142 101 -168 139 -287 411 -10 23 -22 40 -27 37 -4
-3 -8 7 -8 23 0 43 -11 73 -26 73 -8 0 -14 8 -15 18 -4 62 -11 91 -52 207 -26
71 -45 130 -44 132 2 1 35 -29 75 -67 40 -39 79 -70 87 -70 8 0 15 -5 15 -11
0 -5 5 -7 10 -4 6 3 10 -1 10 -9 0 -9 5 -16 12 -16 6 0 26 -11 45 -26 18 -14
33 -21 33 -17 0 4 4 4 8 -2 8 -11 72 -48 72 -42 0 2 -18 16 -40 31 -22 14 -40
24 -40 21 0 -7 -56 43 -97 87 -43 45 -97 118 -88 118 3 0 -7 12 -23 27 -62 58
-224 433 -187 433 3 0 49 -45 101 -100 53 -55 100 -97 105 -94 5 3 9 -2 9 -10
0 -8 8 -17 18 -20 10 -4 27 -14 38 -24 36 -33 99 -79 124 -91 18 -9 15 -4 -10
16 -48 38 -108 98 -90 88 16 -9 -14 31 -40 52 -8 7 -11 13 -7 13 5 0 1 7 -7
16 -9 8 -16 22 -16 30 0 8 -4 12 -10 9 -6 -3 -10 3 -10 14 0 12 -5 21 -11 21
-5 0 -8 4 -5 9 3 5 -1 25 -9 46 -16 36 -15 37 21 88 21 29 79 93 130 142 103
101 118 124 109 165 -9 42 -143 174 -392 389 -73 62 -86 81 -58 81 8 0 21 13
30 30 20 38 6 63 -43 78 -41 13 -58 7 -65 -20 -10 -35 -31 -14 -45 46 l-14 57
29 28 c16 15 45 51 63 80 32 49 35 51 48 34 8 -10 23 -37 34 -60 10 -24 23
-43 28 -43 6 0 9 -3 8 -7 -4 -14 34 -103 44 -103 5 0 7 -3 5 -7 -3 -5 6 -35
20 -68 13 -33 21 -46 17 -30 -3 17 -7 37 -9 45 -2 8 -9 29 -15 45 -11 29 -16
44 -25 91 -3 12 -12 35 -20 50 -8 16 -15 36 -15 44 0 9 -7 26 -16 38 -8 12
-12 22 -9 22 3 0 0 10 -7 23 -7 12 -13 25 -14 30 -1 4 -3 8 -4 10 -1 1 -4 36
-6 77 -2 51 1 78 10 85 6 6 27 41 45 79 37 77 37 89 -4 190 -14 35 -23 70 -20
77 2 8 7 25 9 39 3 14 10 50 15 80 24 122 18 211 -13 223 -7 3 -34 1 -59 -5
-38 -8 -50 -7 -62 5 -13 13 -8 18 41 41 30 14 66 26 81 26 14 0 23 3 19 7 -8
8 -34 14 -59 14 -22 0 -12 19 37 72 20 21 36 48 36 61 0 12 3 26 7 30 5 4 8
13 8 19 1 7 6 11 13 10 7 -2 12 3 12 10 0 7 18 24 40 37 22 14 38 31 35 37 -2
7 3 16 11 21 9 5 14 12 12 16 -5 10 33 62 54 72 11 5 27 22 37 39 9 16 22 36
29 44 15 16 48 92 44 104 -1 4 2 7 7 7 15 0 22 33 9 42 -10 6 -1 31 38 105 28
54 57 116 64 138 7 22 19 47 26 56 8 9 11 19 7 22 -3 4 -2 7 4 7 6 0 20 15 32
33 11 17 32 48 46 67 34 48 68 98 91 138 16 27 17 34 5 41 -12 8 -12 14 2 43
9 19 19 49 22 67 5 30 4 32 -17 26 -58 -18 -214 -89 -223 -102 -7 -9 -33 -16
-68 -18 -31 -2 -65 -6 -74 -9 -10 -3 -31 -8 -48 -10 -16 -3 -41 -8 -55 -10
-14 -3 -43 -8 -65 -11 -22 -3 -52 -8 -67 -11 -24 -5 -27 -3 -21 12 5 13 3 15
-8 8 -8 -4 -18 -9 -24 -10 -5 -1 -53 -14 -105 -28 -160 -44 -283 -74 -325 -80
-22 -4 -53 -9 -70 -11 -65 -11 -131 -12 -143 -2 -10 8 -10 12 0 18 28 18 -2
17 -61 -2 -69 -21 -102 -25 -286 -35 -66 -4 -121 -11 -123 -15 -5 -12 -32 -12
-32 0 0 11 -133 5 -185 -8 -27 -7 -43 -7 -52 1 -14 12 -72 5 -154 -18 -55 -16
-61 -15 -126 4 -98 30 -268 64 -388 78 -33 3 -69 8 -80 11 -24 4 -294 4 -345
-1 -138 -14 -303 -48 -525 -106 -117 -32 -122 -32 -202 -20 -102 16 -206 18
-438 6 -218 -10 -272 -11 -350 -3 -33 3 -91 6 -128 6 -49 1 -66 4 -61 13 5 8
-3 9 -29 5 -20 -3 -37 -1 -39 4 -2 5 -17 12 -33 15 -16 3 -60 14 -97 24 -36
10 -69 16 -72 12 -3 -3 -6 0 -6 6 0 7 -3 11 -7 10 -11 -2 -53 18 -82 39 -24
17 -24 17 -12 -5 6 -12 16 -22 22 -22 6 0 9 -6 6 -12 -5 -17 -40 -13 -164 21
-40 10 -73 17 -73 16 0 -2 -16 3 -35 11 -19 8 -35 11 -35 8 0 -4 -6 -1 -14 5
-7 6 -21 9 -30 5 -9 -3 -16 -2 -16 4 0 6 -33 22 -72 37 -40 15 -108 47 -151
72 -43 24 -82 41 -87 38 -11 -7 -33 12 -42 35 -7 18 -102 73 -111 64z"/>
<path d="M672 3918 c-16 -16 -15 -21 8 -48 17 -20 21 -21 35 -7 20 20 19 53
-1 61 -22 8 -28 8 -42 -6z"/>
<path d="M5590 2761 c0 -6 4 -13 10 -16 6 -3 7 1 4 9 -7 18 -14 21 -14 7z"/>
<path d="M5910 1586 c0 -2 7 -7 16 -10 8 -3 12 -2 9 4 -6 10 -25 14 -25 6z"/>
<path d="M6270 810 c-22 -22 -27 -72 -7 -88 6 -5 27 -12 45 -14 l32 -5 0 64
c0 61 -1 63 -25 63 -14 0 -34 -9 -45 -20z"/>
</g>
</svg>
